<?xml version="1.0" encoding="iso-8859-1"?>
<!-- Generator: Adobe Illustrator 19.0.0, SVG Export Plug-In . SVG Version: 6.00 Build 0)  -->
<svg version="1.1" id="Layer_1" xmlns="http://www.w3.org/2000/svg" xmlns:xlink="http://www.w3.org/1999/xlink" x="0px" y="0px"
	 viewBox="0 0 511.883 511.883" style="enable-background:new 0 0 511.883 511.883;" xml:space="preserve">
<polygon style="fill:#CCD1D9;" points="341.251,479.889 170.626,479.889 191.894,373.336 319.942,373.305 "/>
<g>
	<path style="fill:#E6E9ED;" d="M511.883,383.913c0,5.905-4.781,10.669-10.67,10.669H10.662C4.773,394.582,0,389.818,0,383.913
		V42.663c0-5.889,4.772-10.669,10.662-10.669h490.551c5.889,0,10.67,4.78,10.67,10.669V383.913z"/>
	<path style="fill:#E6E9ED;" d="M341.251,479.889H170.626c-5.89,0-10.669-4.764-10.669-10.653s4.78-10.67,10.669-10.67h170.625
		c5.889,0,10.669,4.78,10.669,10.67S347.139,479.889,341.251,479.889z"/>
</g>
<path style="fill:#A0D468;" d="M501.213,31.994H10.662C4.773,31.994,0,36.774,0,42.663v287.934h511.883V42.663
	C511.883,36.774,507.102,31.994,501.213,31.994z"/>
<g>
	<path style="fill:#434A54;" d="M501.213,31.994h-95.979v298.603h106.648V42.663C511.883,36.774,507.102,31.994,501.213,31.994z"/>
	<path style="fill:#434A54;" d="M266.603,362.589c0,5.89-4.78,10.669-10.669,10.669c-5.889,0-10.662-4.779-10.662-10.669
		s4.772-10.669,10.662-10.669S266.603,356.699,266.603,362.589z"/>
</g>
<rect x="405.232" y="159.962" style="fill:#656D78;" width="105.16" height="21.338"/>
<polygon style="fill:#E6E9ED;" points="127.963,245.085 176.718,163.823 225.464,245.085 "/>
<polygon style="fill:#F5F7FA;" points="168.594,245.085 233.595,131.33 298.588,245.085 "/>
<g>
	<rect x="85.312" y="95.982" style="fill:#434A54;" width="21.331" height="21.339"/>
	<rect x="202.622" y="95.982" style="fill:#434A54;" width="21.323" height="21.339"/>
	<rect x="319.922" y="95.982" style="fill:#434A54;" width="21.324" height="21.339"/>
	<rect x="319.922" y="181.302" style="fill:#434A54;" width="21.324" height="21.323"/>
	<rect x="319.922" y="266.612" style="fill:#434A54;" width="21.324" height="21.322"/>
	<rect x="85.312" y="266.612" style="fill:#434A54;" width="21.331" height="21.322"/>
	<rect x="85.312" y="181.302" style="fill:#434A54;" width="21.331" height="21.323"/>
	<rect x="202.622" y="266.612" style="fill:#434A54;" width="21.323" height="21.322"/>
</g>
<g>
</g>
<g>
</g>
<g>
</g>
<g>
</g>
<g>
</g>
<g>
</g>
<g>
</g>
<g>
</g>
<g>
</g>
<g>
</g>
<g>
</g>
<g>
</g>
<g>
</g>
<g>
</g>
<g>
</g>
</svg>
