<?xml version="1.0" encoding="UTF-8" standalone="no"?>
<svg
   xmlns:dc="http://purl.org/dc/elements/1.1/"
   xmlns:cc="http://creativecommons.org/ns#"
   xmlns:rdf="http://www.w3.org/1999/02/22-rdf-syntax-ns#"
   xmlns:svg="http://www.w3.org/2000/svg"
   xmlns="http://www.w3.org/2000/svg"
   xmlns:sodipodi="http://sodipodi.sourceforge.net/DTD/sodipodi-0.dtd"
   xmlns:inkscape="http://www.inkscape.org/namespaces/inkscape"
   height="511pt"
   viewBox="-30 1 511 511.99899"
   width="511pt"
   version="1.1"
   id="svg3723"
   sodipodi:docname="001-bot.svg"
   inkscape:version="0.92.3 (2405546, 2018-03-11)">
  <sodipodi:namedview
     pagecolor="#ffffff"
     bordercolor="#666666"
     borderopacity="1"
     objecttolerance="10"
     gridtolerance="10"
     guidetolerance="10"
     inkscape:pageopacity="0"
     inkscape:pageshadow="2"
     inkscape:window-width="2736"
     inkscape:window-height="1699"
     id="namedview3725"
     showgrid="false"
     inkscape:zoom="0.49902153"
     inkscape:cx="307.10098"
     inkscape:cy="471.6387"
     inkscape:window-x="-13"
     inkscape:window-y="-13"
     inkscape:window-maximized="1"
     inkscape:current-layer="svg3723" />
  <metadata
     id="metadata3729">
    <rdf:RDF>
      <cc:Work
         rdf:about="">
        <dc:format>image/svg+xml</dc:format>
        <dc:type
           rdf:resource="http://purl.org/dc/dcmitype/StillImage" />
      </cc:Work>
    </rdf:RDF>
  </metadata>
  <defs
     id="defs3727" />
  <path
     id="path3713"
     d="m155.742188 191.246094c-31.023438 0-56.265626 25.242187-56.265626 56.269531 0 31.023437 25.242188 56.265625 56.265626 56.265625 31.027343 0 56.269531-25.242188 56.269531-56.265625 0-31.027344-25.242188-56.269531-56.269531-56.269531zm0 97.328125c-22.636719 0-41.054688-18.421875-41.054688-41.0625s18.417969-41.058594 41.054688-41.058594c22.640624 0 41.0625 18.417969 41.0625 41.058594s-18.421876 41.0625-41.0625 41.0625zm0 0" />
  <path
     id="path3715"
     d="m155.742188 221.664062c-14.253907 0-25.847657 11.59375-25.847657 25.851563 0 14.253906 11.59375 25.851563 25.847657 25.851563 14.253906 0 25.851562-11.597657 25.851562-25.851563 0-14.257813-11.59375-25.851563-25.851562-25.851563zm0 36.492188c-5.867188 0-10.640626-4.773438-10.640626-10.644531 0-5.867188 4.773438-10.640625 10.640626-10.640625 5.871093 0 10.644531 4.773437 10.644531 10.640625 0 5.871093-4.773438 10.644531-10.644531 10.644531zm0 0" />
  <path
     id="path3717"
     d="m352.675781 247.511719c0-31.023438-25.242187-56.265625-56.269531-56.265625-31.023438 0-56.265625 25.242187-56.265625 56.265625 0 31.027343 25.242187 56.269531 56.265625 56.269531 31.027344 0 56.269531-25.242188 56.269531-56.269531zm-56.269531 41.0625c-22.636719 0-41.058594-18.421875-41.058594-41.0625s18.421875-41.058594 41.058594-41.058594c22.640625 0 41.058594 18.417969 41.058594 41.058594s-18.417969 41.0625-41.058594 41.0625zm0 0" />
  <path
     id="path3719"
     d="m296.40625 221.664062c-14.253906 0-25.847656 11.59375-25.847656 25.851563 0 14.253906 11.59375 25.851563 25.847656 25.851563s25.851562-11.597657 25.851562-25.851563c0-14.257813-11.597656-25.851563-25.851562-25.851563zm0 36.492188c-5.867188 0-10.640625-4.773438-10.640625-10.644531 0-5.867188 4.773437-10.640625 10.640625-10.640625 5.871094 0 10.644531 4.773437 10.644531 10.640625 0 5.871093-4.773437 10.644531-10.644531 10.644531zm0 0" />
  <path
     id="path3721"
     d="m419.007812 202.816406h-.730468v-10.613281c.003906-105.980469-86.21875-192.203125-192.199219-192.203125-105.984375 0-192.207031 86.222656-192.207031 192.203125v10.613281h-.726563c-18 0-32.644531 14.644532-32.644531 32.644532v74.625c0 18 14.644531 32.644531 32.644531 32.644531h9.738281c6.40625 0 12.382813-1.863281 17.433594-5.066407v.074219c0 45.839844 37.292969 83.136719 83.136719 83.136719h22.058594v25.742188h-43.679688c-31.007812 0-56.230469 25.226562-56.230469 56.230468v1.546875c0 4.199219 3.402344 7.605469 7.601563 7.605469h234.519531c4.199219 0 7.601563-3.40625 7.601563-7.605469s-3.402344-7.601562-7.601563-7.601562h-226.46875c2.9375-19.761719 20.015625-34.96875 40.578125-34.96875h206.914063c20.5625 0 37.640625 15.207031 40.574218 34.96875h-36.25c-4.203124 0-7.605468 3.402343-7.605468 7.601562s3.402344 7.605469 7.605468 7.605469h44.300782c4.203125 0 7.605468-3.40625 7.605468-7.605469v-1.546875c0-31.003906-25.226562-56.230468-56.230468-56.230468h-43.679688v-25.742188h23.636719c18.425781 0 36.242187-6.125 50.746094-17.308594 3.285156 1.300782 6.863281 2.023438 10.609375 2.023438h7.09375c13.351562 0 24.609375-9.101563 27.914062-21.421875 12.089844-1.269531 21.542969-11.523438 21.542969-23.945313v-18.394531c14.34375-3.4375 25.042969-16.359375 25.042969-31.742187v-74.625c0-18-14.644532-32.644532-32.644532-32.644532zm-376.125 124.707032h-9.738281c-9.613281 0-17.4375-7.824219-17.4375-17.4375v-74.625c0-9.613282 7.824219-17.433594 17.4375-17.433594h9.738281c9.597657 0 17.410157 7.800781 17.433594 17.394531v74.703125c-.023437 9.597656-7.832031 17.398438-17.433594 17.398438zm32.640626 10.214843v-27.574219c0-.027343 0-.050781 0-.078124v-6.589844c11.074218 4.257812 20.988281 11.40625 28.53125 20.726562 9.875 12.203125 15.097656 26.96875 15.097656 42.703125v34.230469c-25.488282-9.800781-43.628906-34.523438-43.628906-63.417969zm208.339843 67.925781h-13.808593v-62.445312c8.058593 3.074219 13.808593 10.867188 13.808593 19.992188zm-29.015625 0h-21.167968v-63.867187h21.167968zm-36.375 0h-21.167968v-63.867187h21.167968zm-36.375 0h-13.808594v-42.453124c0-9.125 5.75-16.917969 13.808594-19.992188zm87.757813 40.953126h-89.136719v-25.742188h89.136719zm29.214843-40.953126v-42.453124c0-20.191407-16.425781-36.621094-36.617187-36.621094h-72.75c-20.195313 0-36.621094 16.429687-36.621094 36.621094v42.453124h-9.628906c-3.085937 0-6.117187-.226562-9.09375-.625v-38.117187c0-18.980469-6.566406-37.539063-18.480469-52.265625-10.445312-12.90625-24.605468-22.417969-40.355468-27.238281v-78.433594c0-37.449219 30.472656-67.917969 67.929687-67.917969h28.921875c4.203125 0 7.605469-3.402344 7.605469-7.601562 0-4.199219-3.402344-7.605469-7.605469-7.605469h-28.921875c-45.480469 0-82.527344 36.707031-83.109375 82.042969-3.386719-2.152344-7.1875-3.699219-11.261719-4.488282v-11.210937c0-97.59375 79.398438-176.996094 176.996094-176.996094 97.59375 0 176.992187 79.402344 176.992187 176.996094v11.214844c-4.070312.785156-7.875 2.332031-11.257812 4.484375-.585938-45.335938-37.632812-82.042969-83.109375-82.042969h-110.976563c-4.199218 0-7.605468 3.40625-7.605468 7.605469 0 4.199218 3.40625 7.605468 7.605468 7.605468h110.976563c37.457031 0 67.929687 30.464844 67.929687 67.917969l-.003906 78.433594c-15.746094 4.824219-29.910156 14.335937-40.351562 27.238281-11.917969 14.726563-18.480469 33.285156-18.480469 52.265625v38.128907c-3 .40625-6.039063.613281-9.09375.613281h-9.632813zm42.09375-28.96875c0 6.445313 2.121094 12.40625 5.703126 17.21875-4.339844 2.953126-8.992188 5.386719-13.863282 7.25v-34.242187c0-15.730469 5.21875-30.496094 15.09375-42.695313 7.542969-9.316406 17.457032-16.46875 28.53125-20.730468v6.589844c0 .039062.003906.078124.003906.117187v27.53125c0 3.378906-.253906 6.746094-.746093 10.066406h-5.828125c-15.933594 0-28.894532 12.960938-28.894532 28.894531zm35.992188 13.6875h-7.097656c-7.546875 0-13.6875-6.140624-13.6875-13.6875 0-7.546874 6.140625-13.6875 13.6875-13.6875h7.097656c7.546875 0 13.6875 6.140626 13.6875 13.6875 0 7.546876-6.140625 13.6875-13.6875 13.6875zm27.777344-21.628906c-2.171875-7.582031-7.363282-13.898437-14.191406-17.550781.722656-4.4375 1.097656-8.945313 1.097656-13.464844v-.074219c5.046875 3.203126 11.023437 5.066407 17.433594 5.066407h2.132812v17.492187c0 4.058594-2.746094 7.480469-6.472656 8.53125zm31.511718-58.667968c0 9.613281-7.820312 17.4375-17.4375 17.4375h-9.734374c-9.59375 0-17.402344-7.792969-17.433594-17.378907v-74.742187c.03125-9.585938 7.839844-17.378906 17.433594-17.378906h9.734374c9.617188 0 17.4375 7.824218 17.4375 17.4375zm0 0" />
  <path
     transform="matrix(0.75146625,0,0,0.75146625,-30.499495,1)"
     inkscape:connector-curvature="0"
     id="path3743"
     d="m 192.12598,529.06369 c -28.56966,-14.07508 -47.37439,-41.22579 -50.35167,-72.69889 -0.32922,-3.48025 -0.48437,-15.13241 -0.39483,-29.65399 l 0.14748,-23.92106 6.51275,3.17624 c 28.10247,13.70544 46.92864,40.29888 50.31429,71.07284 0.60572,5.50564 0.74926,55.00683 0.15948,54.99448 -0.20665,-0.005 -3.08103,-1.34066 -6.3875,-2.96962 z"
     style="fill:#999999;stroke-width:0.50098038;opacity:1" />
  <path
     transform="matrix(0.75146625,0,0,0.75146625,-30.499495,1)"
     inkscape:connector-curvature="0"
     id="path3745"
     d="m 483.94706,507.2229 c 0,-14.00728 0.23032,-26.93742 0.52874,-29.68308 3.35725,-30.88924 21.88536,-57.4364 49.81979,-71.38202 1.92877,-0.9629 4.36745,-2.1098 5.41927,-2.54867 l 1.91241,-0.79796 -0.21576,27.91819 c -0.11867,15.355 -0.38098,28.51411 -0.5829,29.24246 l -0.36715,1.32427 -7.34127,0.23693 c -10.64964,0.34372 -16.69106,2.38883 -24.03757,8.13707 -15.23376,11.9196 -19.18515,34.48118 -8.86458,50.61483 l 1.66675,2.60555 -3.94001,2.3437 c -3.66759,2.18163 -12.96313,6.80701 -13.67995,6.80701 -0.17477,0 -0.31777,-11.16823 -0.31777,-24.81828 z"
     style="fill:#999999;stroke-width:0.50098038;opacity:1" />
  <path
     transform="matrix(0.75146625,0,0,0.75146625,-30.499495,1)"
     inkscape:connector-curvature="0"
     id="path3747"
     d="m 528.49892,517.3287 c -5.14817,-1.38809 -9.53744,-5.17547 -11.90957,-10.27642 -1.0846,-2.33227 -1.31119,-3.54821 -1.32017,-7.08438 -0.01,-3.81564 0.16202,-4.62 1.61731,-7.57612 1.93025,-3.92091 5.07457,-6.9993 9.05518,-8.86534 2.74885,-1.28861 3.14254,-1.33281 11.87132,-1.33281 h 9.02818 l 3.35108,1.64973 c 14.99756,7.38327 12.80561,29.22235 -3.35216,33.39861 -3.64112,0.94111 -14.9737,0.9947 -18.34117,0.0867 z"
     style="fill:#cccccc;stroke-width:0.50098038;opacity:1" />
  <path
     inkscape:connector-curvature="0"
     id="path3749"
     d="m 221.0576,537.69053 -1.62819,-0.20204 -0.004,-29.15038 c -0.002,-16.54252 -0.22562,-31.10048 -0.51612,-33.65919 -3.30453,-29.10562 -18.26365,-56.1965 -41.06124,-74.36171 -9.25264,-7.37254 -21.46551,-14.20053 -31.43652,-17.57558 l -5.13505,-1.73815 v -53.9315 c 0,-33.86631 0.19482,-55.86175 0.52363,-59.11964 2.22512,-22.04654 12.14088,-41.87603 28.62517,-57.24446 11.89852,-11.09306 26.92296,-18.81847 43.58875,-22.41285 4.85283,-1.04663 6.76921,-1.13132 31.71686,-1.4016 29.03663,-0.31459 28.41627,-0.24884 31.50666,-3.33922 4.72707,-4.72708 3.60031,-12.96364 -2.21983,-16.22676 l -2.23389,-1.25245 -25.55,0.005 c -28.42178,0.005 -30.68911,0.18793 -43.6945,3.52117 -45.82553,11.7451 -79.63034,52.58712 -82.58362,99.77538 l -0.33869,5.41169 -4.23957,-2.08515 c -2.33176,-1.14682 -5.51746,-2.3969 -7.07933,-2.77794 l -2.83978,-0.6928 -0.15189,-11.5 c -0.55966,-42.37146 9.63999,-82.36488 30.33881,-118.96029 23.90002,-42.255117 62.4464,-77.847954 105.82926,-97.720309 24.92416,-11.416988 48.38254,-17.836065 76.14902,-20.837169 10.73691,-1.160484 34.88988,-1.158114 45.58922,0.0045 35.95906,3.907307 66.93064,14.066554 96.9397,31.797998 26.07105,15.404593 50.4603,37.312864 68.69383,61.70599 27.0595,36.20066 43.17445,79.5414 46.28921,124.49363 0.30547,4.40862 0.485,13.19068 0.39893,19.51568 l -0.15648,11.5 -2.83977,0.6928 c -1.56188,0.38104 -4.74594,1.63112 -7.07571,2.77794 l -4.23593,2.08515 -0.32286,-5.38901 c -2.81933,-47.05919 -37.01062,-88.33143 -82.71333,-99.8431 -14.62516,-3.68381 -8.89108,-3.48064 -98.23391,-3.48064 H 300.7604 l -2.42684,1.50294 c -3.13558,1.94186 -4.75905,4.87955 -4.75905,8.61155 0,3.30807 0.86624,5.42737 3.07139,7.51434 3.27511,3.09958 -2.43623,2.88887 85.85263,3.16742 l 81.15882,0.25606 5.1649,1.14083 c 8.19456,1.81002 15.33228,4.34018 22.89,8.11399 27.5828,13.77297 45.94021,40.29348 49.31686,71.2469 0.34041,3.12045 0.5306,24.31734 0.53045,59.11569 l -2.5e-4,54.25087 -4.13284,1.42407 c -15.46375,5.32839 -30.11358,14.60229 -41.79564,26.45821 -6.68017,6.77959 -9.14857,9.78669 -14.0264,17.0875 -6.78264,10.1518 -12.42905,23.26989 -15.36118,35.68806 -2.60057,11.01391 -2.83639,14.88402 -2.83639,46.54874 v 29.21362 l -2.32433,0.31858 c -1.27839,0.17519 -6.78938,0.31857 -12.24666,0.31857 h -9.92232 l -0.17086,-31.68701 -0.17085,-31.68701 -1.30522,-4.78453 c -5.13777,-18.8335 -19.06972,-31.83098 -38.73672,-36.13849 -2.37967,-0.5212 -14.27767,-0.65835 -57.11176,-0.65835 -42.83409,0 -54.7321,0.13715 -57.11177,0.65835 -19.82629,4.3424 -33.89181,17.63003 -38.92045,36.76795 -1.05535,4.01643 -1.09808,5.21235 -1.28053,35.84208 l -0.18875,31.68701 -10.61543,-0.0802 c -5.83848,-0.0441 -11.34811,-0.17113 -12.24361,-0.28225 z m 33.83592,-134.93394 c 10.11768,-1.10772 18.00438,-3.36175 26.23382,-7.49764 40.79456,-20.50227 54.26095,-71.32236 28.93287,-109.18825 -5.08278,-7.59883 -14.25056,-16.50292 -22.29615,-21.65485 -6.65219,-4.25967 -16.14082,-8.04609 -25.12083,-10.02443 -6.68942,-1.47371 -21.68718,-1.59395 -28.4349,-0.22797 -30.62957,6.20055 -53.18175,28.32521 -59.99506,58.85774 -1.58644,7.10933 -1.57256,22.636 0.0268,29.99428 7.61245,35.02256 37.10622,59.38499 72.88823,60.20711 1.59521,0.0367 5.08955,-0.17304 7.7652,-0.46599 z m 193.04711,-0.76443 c 26.87384,-4.50307 50.23009,-24.80504 58.44813,-50.80491 2.8685,-9.07524 3.35013,-12.39107 3.34738,-23.04509 -0.004,-13.79236 -1.76059,-21.63039 -7.46817,-33.3152 -3.63377,-7.4392 -8.009,-13.4858 -14.31884,-19.78872 -6.29215,-6.28525 -11.58649,-10.14762 -19.16896,-13.98428 -6.4323,-3.25468 -11.40731,-4.99885 -18.90455,-6.6277 -7.45298,-1.61922 -22.39899,-1.62681 -29.72362,-0.0151 -15.39625,3.38782 -27.17744,9.82178 -38.16961,20.84524 -6.64637,6.66531 -10.93992,12.5997 -14.53443,20.08898 -11.89886,24.7917 -9.35909,54.01656 6.65341,76.56012 3.82291,5.38218 11.82632,13.33215 17.41579,17.29952 5.01749,3.56138 14.47009,8.31247 20.44319,10.27522 11.1222,3.65471 23.85509,4.54364 35.98028,2.51191 z"
     style="fill:#cccccc;stroke-width:0.50098038;opacity:1"
     transform="matrix(0.75146625,0,0,0.75146625,-30.499495,1)" />
  <path
     transform="matrix(0.75146625,0,0,0.75146625,-30.499495,1)"
     inkscape:connector-curvature="0"
     id="path3751"
     d="m 245.05294,341.64169 c -8.02522,-1.6171 -12.93741,-10.19919 -10.33038,-18.04822 1.17368,-3.53364 5.03024,-7.46636 8.47167,-8.63897 9.31105,-3.1726 18.50623,3.56037 18.38794,13.46415 -0.10037,8.40296 -8.21887,14.89759 -16.52923,13.22304 z"
     style="fill:#333333;stroke-width:0.50098038;opacity:1" />
  <path
     transform="matrix(0.75146625,0,0,0.75146625,-30.499495,1)"
     inkscape:connector-curvature="0"
     id="path3753"
     d="m 432.21305,341.62996 c -4.64471,-1.10769 -8.51132,-4.4018 -10.12427,-8.62525 -1.08944,-2.85266 -0.87832,-8.26854 0.42741,-10.96422 2.9662,-6.12377 10.38386,-9.3199 16.73446,-7.21057 3.05792,1.01568 6.78559,4.17435 8.20136,6.94948 1.31264,2.57299 1.74884,7.17923 0.95003,10.0323 -1.86177,6.64957 -9.65562,11.37636 -16.18899,9.81826 z"
     style="fill:#333333;stroke-width:0.50098038;opacity:1" />
  <path
     style="fill:#84db4a;stroke-width:0.50098038;fill-opacity:1"
     d="m 579.43392,433.44108 c -6.54719,-1.71133 -11.69093,-6.02021 -14.87337,-12.45932 l -1.90947,-3.86349 v -55.38438 -55.38438 l 1.8612,-3.89779 c 3.12997,-6.5549 8.28097,-10.8186 15.26897,-12.63874 4.04619,-1.0539 19.8596,-1.04025 23.93271,0.0207 6.81728,1.77568 12.113,6.17485 15.18965,12.61808 l 1.86119,3.89779 0.13621,54.10521 c 0.13267,52.70194 0.11047,54.18969 -0.8559,57.36226 -2.42854,7.97286 -8.66123,13.88781 -16.60753,15.76087 -4.66273,1.09907 -19.60123,1.01395 -24.00366,-0.13677 z"
     id="path4748"
     inkscape:connector-curvature="0"
     transform="matrix(0.75146625,0,0,0.75146625,-30.499495,1)" />
  <path
     style="fill:#84db4a;fill-opacity:1;stroke-width:0.50098038"
     d="m 78.95451,433.44108 c -6.676724,-1.74518 -11.873747,-6.09433 -14.929618,-12.4939 l -1.853225,-3.881 v -55.35834 -55.35833 l 1.124279,-2.77661 c 2.278088,-5.62615 7.464107,-10.64386 13.534802,-13.09555 2.716946,-1.09725 3.509568,-1.16117 14.397781,-1.16117 10.880621,0 11.682331,0.0645 14.390541,1.15847 6.64459,2.68395 11.8419,8.2794 13.91021,14.9758 0.98112,3.1765 1.0066,4.59326 1.0066,55.95442 0,57.40274 0.0828,55.61802 -2.82952,60.96897 -2.9275,5.37878 -9.43263,10.14074 -15.60617,11.42422 -4.268847,0.8875 -19.269702,0.65613 -23.14568,-0.35698 z"
     id="path4750"
     inkscape:connector-curvature="0"
     transform="matrix(0.75146625,0,0,0.75146625,-30.499495,1)" />
  <path
     style="fill:#84db4a;fill-opacity:1;stroke-width:0.50098038"
     d="m 264.82564,508.36985 c 0.008,-33.06865 0.0235,-33.24796 3.36027,-39.59791 2.27372,-4.3269 6.9206,-9.07644 11.01577,-11.25915 1.67235,-0.89135 3.17815,-1.62063 3.34624,-1.62063 0.16809,0 0.30561,18.48617 0.30561,41.08039 v 41.08039 h -9.01765 -9.01764 z"
     id="path4752"
     inkscape:connector-curvature="0"
     transform="matrix(0.75146625,0,0,0.75146625,-30.499495,1)" />
  <path
     style="fill:#84db4a;fill-opacity:1;stroke-width:0.50098038"
     d="m 303.39373,495.97059 v -42.08235 h 13.77696 13.77696 v 42.08235 42.08235 h -13.77696 -13.77696 z"
     id="path4754"
     inkscape:connector-curvature="0"
     transform="matrix(0.75146625,0,0,0.75146625,-30.499495,1)" />
  <path
     style="fill:#84db4a;fill-opacity:1;stroke-width:0.50098038"
     d="m 351.98882,495.97059 v -42.08235 h 13.77696 13.77697 v 42.08235 42.08235 h -13.77697 -13.77696 z"
     id="path4756"
     inkscape:connector-curvature="0"
     transform="matrix(0.75146625,0,0,0.75146625,-30.499495,1)" />
  <path
     style="fill:#84db4a;fill-opacity:1;stroke-width:0.50098038"
     d="m 400.08294,496.97255 c 0,-22.59422 0.1217,-41.08039 0.27045,-41.08039 0.52589,0 4.50601,2.15487 5.74132,3.1084 4.89404,3.77769 8.60398,8.70359 10.59218,14.06381 1.15456,3.11273 1.15657,3.16473 1.3153,34.05303 l 0.15898,30.93554 h -9.03912 -9.03911 z"
     id="path4758"
     inkscape:connector-curvature="0"
     transform="matrix(0.75146625,0,0,0.75146625,-30.499495,1)" />
  <path
     style="fill:#cccccc;fill-opacity:1;stroke-width:2.00392151"
     d="m 282.25235,576.41228 v -16.03137 h 58.11373 58.11372 v 16.03137 16.03137 h -58.11372 -58.11373 z"
     id="path4762"
     inkscape:connector-curvature="0"
     transform="matrix(0.75146625,0,0,0.75146625,-30.499495,1)" />
</svg>
