<?xml version="1.0" encoding="UTF-8" standalone="no"?>
<!-- Generator: Adobe Illustrator 19.0.0, SVG Export Plug-In . SVG Version: 6.00 Build 0)  -->

<svg
   xmlns:dc="http://purl.org/dc/elements/1.1/"
   xmlns:cc="http://creativecommons.org/ns#"
   xmlns:rdf="http://www.w3.org/1999/02/22-rdf-syntax-ns#"
   xmlns:svg="http://www.w3.org/2000/svg"
   xmlns="http://www.w3.org/2000/svg"
   xmlns:sodipodi="http://sodipodi.sourceforge.net/DTD/sodipodi-0.dtd"
   xmlns:inkscape="http://www.inkscape.org/namespaces/inkscape"
   version="1.1"
   id="Layer_1"
   x="0px"
   y="0px"
   viewBox="0 0 512 512"
   style="enable-background:new 0 0 512 512;"
   xml:space="preserve"
   sodipodi:docname="002-graphic.svg"
   inkscape:version="0.92.3 (2405546, 2018-03-11)"><metadata
   id="metadata4872"><rdf:RDF><cc:Work
       rdf:about=""><dc:format>image/svg+xml</dc:format><dc:type
         rdf:resource="http://purl.org/dc/dcmitype/StillImage" /></cc:Work></rdf:RDF></metadata><defs
   id="defs4870" /><sodipodi:namedview
   pagecolor="#ffffff"
   bordercolor="#666666"
   borderopacity="1"
   objecttolerance="10"
   gridtolerance="10"
   guidetolerance="10"
   inkscape:pageopacity="0"
   inkscape:pageshadow="2"
   inkscape:window-width="2736"
   inkscape:window-height="1699"
   id="namedview4868"
   showgrid="false"
   inkscape:zoom="0.4609375"
   inkscape:cx="-196.33898"
   inkscape:cy="169.22034"
   inkscape:window-x="-13"
   inkscape:window-y="-13"
   inkscape:window-maximized="1"
   inkscape:current-layer="Layer_1" />
<g
   id="g4823">
	<g
   id="g4821">
		<path
   d="M488.399,492h-21.933V173.536c0-14.823-12.06-26.882-26.882-26.882H390.56c-14.823,0-26.882,12.06-26.882,26.882V492    h-55.692V317.825c0-14.823-12.059-26.882-26.882-26.882H232.08c-14.823,0-26.882,12.06-26.882,26.882V492h-55.692v-90.204    c0-14.823-12.06-26.882-26.882-26.882H73.599c-14.823,0-26.882,12.06-26.882,26.882V492H23.601c-5.523,0-10,4.477-10,10    s4.477,10,10,10h464.798c5.523,0,10-4.477,10-10S493.922,492,488.399,492z M129.504,492H66.716v-90.204    c0-3.795,3.087-6.882,6.882-6.882h49.024c3.795,0,6.882,3.087,6.882,6.882V492z M287.985,492h-62.788V317.825    c0-3.795,3.087-6.882,6.882-6.882h49.024c3.794,0,6.882,3.087,6.882,6.882V492z M446.466,492h-62.788V173.536    c0-3.795,3.087-6.882,6.882-6.882h49.024c3.795,0,6.882,3.087,6.882,6.882V492z"
   id="path4819" />
	</g>
</g>
<g
   id="g4829">
	<g
   id="g4827">
		<path
   d="M466.442,10.516c0.14-2.729-0.82-5.504-2.904-7.588c-2.084-2.084-4.859-3.045-7.588-2.904    C455.789,0.017,455.63,0,455.466,0h-60.5c-5.523,0-10,4.477-10,10s4.477,10,10,10h37.357l-98.857,98.858l-37.28-37.28    c-1.875-1.875-4.419-2.929-7.071-2.929c-2.652,0-5.196,1.054-7.071,2.929l-179.769,179.77c-3.905,3.905-3.905,10.237,0,14.143    c1.953,1.951,4.512,2.927,7.071,2.927s5.119-0.976,7.071-2.929L289.115,102.79l37.28,37.28c3.905,3.905,10.237,3.905,14.143,0    L446.466,34.143v33.81c0,5.523,4.477,10,10,10s10-4.477,10-10V11C466.466,10.837,466.449,10.678,466.442,10.516z"
   id="path4825" />
	</g>
</g>
<g
   id="g4835">
	<g
   id="g4833">
		<circle
   cx="75.64"
   cy="303.31"
   r="10"
   id="circle4831" />
	</g>
</g>
<g
   id="g4837">
</g>
<g
   id="g4839">
</g>
<g
   id="g4841">
</g>
<g
   id="g4843">
</g>
<g
   id="g4845">
</g>
<g
   id="g4847">
</g>
<g
   id="g4849">
</g>
<g
   id="g4851">
</g>
<g
   id="g4853">
</g>
<g
   id="g4855">
</g>
<g
   id="g4857">
</g>
<g
   id="g4859">
</g>
<g
   id="g4861">
</g>
<g
   id="g4863">
</g>
<g
   id="g4865">
</g>
<path
   style="fill:#cccccc;fill-opacity:1;stroke-width:2.16949153"
   d="m 68.555932,443.89313 c 0,-40.3203 0.450414,-46.5848 3.431675,-47.72882 1.887421,-0.72427 14.021077,-1.31685 26.96368,-1.31685 18.500073,0 24.261003,0.729 26.941203,3.4092 2.87677,2.87676 3.4092,10.33091 3.4092,47.72881 v 44.31961 H 98.928814 68.555932 Z"
   id="path5417"
   inkscape:connector-curvature="0" /><path
   style="fill:#999999;fill-opacity:1;stroke-width:2.16949153"
   d="m 226.3621,401.89831 0.56671,-88.40678 h 29.28814 29.28813 l 0.56671,88.40678 0.56671,88.40677 H 256.21695 225.7954 Z"
   id="path5419"
   inkscape:connector-curvature="0" /><path
   style="fill:#84db4a;fill-opacity:0.94901961;stroke-width:2.16949153"
   d="m 384.21695,331.28136 c 0,-120.79247 0.62589,-159.64962 2.60339,-161.62712 2.7345,-2.73451 48.15405,-3.80256 54.7107,-1.28654 3.0864,1.18437 3.43167,17.44647 3.43167,161.62712 v 160.31026 h -30.37288 -30.37288 z"
   id="path5421"
   inkscape:connector-curvature="0" /></svg>