<?xml version="1.0" encoding="UTF-8" standalone="no"?>
<svg
   xmlns:dc="http://purl.org/dc/elements/1.1/"
   xmlns:cc="http://creativecommons.org/ns#"
   xmlns:rdf="http://www.w3.org/1999/02/22-rdf-syntax-ns#"
   xmlns:svg="http://www.w3.org/2000/svg"
   xmlns="http://www.w3.org/2000/svg"
   xmlns:sodipodi="http://sodipodi.sourceforge.net/DTD/sodipodi-0.dtd"
   xmlns:inkscape="http://www.inkscape.org/namespaces/inkscape"
   viewBox="0 0 302.69 302.69"
   version="1.1"
   id="svg4584"
   sodipodi:docname="003-webassembly.svg"
   inkscape:version="0.92.2 (5c3e80d, 2017-08-06)"
   width="302.69"
   height="302.69">
  <metadata
     id="metadata4588">
    <rdf:RDF>
      <cc:Work
         rdf:about="">
        <dc:format>image/svg+xml</dc:format>
        <dc:type
           rdf:resource="http://purl.org/dc/dcmitype/StillImage" />
        <dc:title>web-assembly-logo</dc:title>
      </cc:Work>
    </rdf:RDF>
  </metadata>
  <sodipodi:namedview
     pagecolor="#ffffff"
     bordercolor="#666666"
     borderopacity="1"
     objecttolerance="10"
     gridtolerance="10"
     guidetolerance="10"
     inkscape:pageopacity="0"
     inkscape:pageshadow="2"
     inkscape:window-width="1920"
     inkscape:window-height="1137"
     id="namedview4586"
     showgrid="false"
     inkscape:zoom="4.7044831"
     inkscape:cx="151.345"
     inkscape:cy="78.535207"
     inkscape:window-x="-8"
     inkscape:window-y="-8"
     inkscape:window-maximized="1"
     inkscape:current-layer="svg4584" />
  <defs
     id="defs4549">
    <style
       id="style4547">
      .cls-1 {
        fill: #393939;
      }

      .cls-2 {
        fill: #654ff0;
      }
    </style>
  </defs>
  <title
     id="title4551">web-assembly-logo</title>
  <g
     data-name="Notch - Purple"
     id="Notch_-_Purple"
     transform="translate(0,145.66)">
    <g
       id="g4575"
       style="display:inline">
      <path
         style="fill:#393939"
         inkscape:connector-curvature="0"
         id="path4553"
         transform="translate(-0.21)"
         d="m 27,156.68 h -4.59 l -4.34,-15.24 q -0.28,-1 -0.7,-2.88 -0.42,-1.88 -0.51,-2.61 -0.18,1.12 -0.57,2.9 -0.39,1.78 -0.66,2.66 L 11.4,156.68 H 6.87 L 3.57,143.88 0.21,131.12 H 4.48 L 8.13,146 a 64.24,64.24 0 0 1 1.22,6.33 q 0.19,-1.49 0.58,-3.32 0.39,-1.83 0.7,-3 l 4.16,-14.93 h 4.14 l 4.27,15 a 56.12,56.12 0 0 1 1.29,6.22 45.58,45.58 0 0 1 1.26,-6.3 l 3.64,-14.86 h 4.23 z"
         class="cls-1" />
      <path
         style="fill:#393939"
         inkscape:connector-curvature="0"
         id="path4555"
         transform="translate(-0.21)"
         d="M 54.91,156.68 H 40.46 v -25.56 h 14.45 v 3.53 H 44.63 v 7 h 9.63 v 3.5 h -9.63 v 8 h 10.28 z"
         class="cls-1" />
      <path
         style="fill:#393939"
         inkscape:connector-curvature="0"
         id="path4557"
         transform="translate(-0.21)"
         d="m 63.66,131.12 h 7.59 q 5.28,0 7.63,1.54 a 5.39,5.39 0 0 1 2.35,4.86 5.89,5.89 0 0 1 -1.15,3.72 5.16,5.16 0 0 1 -3.32,1.87 v 0.17 a 6.6,6.6 0 0 1 4,2 6.06,6.06 0 0 1 1.27,4 6.56,6.56 0 0 1 -2.4,5.39 10.34,10.34 0 0 1 -6.69,1.95 h -9.28 z m 4.18,10.56 h 4 a 6.88,6.88 0 0 0 3.83,-0.83 3.18,3.18 0 0 0 1.22,-2.85 2.83,2.83 0 0 0 -1.3,-2.6 8.14,8.14 0 0 0 -4.13,-0.8 h -3.62 z m 0,3.39 v 8.09 h 4.44 a 6.54,6.54 0 0 0 4,-1 3.71,3.71 0 0 0 1.29,-3.16 3.37,3.37 0 0 0 -1.36,-3 7.22,7.22 0 0 0 -4.14,-1 z"
         class="cls-1" />
      <path
         style="fill:#393939"
         inkscape:connector-curvature="0"
         id="path4559"
         transform="translate(-0.21)"
         d="m 108.87,156.68 -3.18,-8.13 H 95.44 l -3.15,8.13 h -3 L 99.39,131 h 2.5 l 10.05,25.66 z m -4.11,-10.8 -3,-7.92 q -0.58,-1.5 -1.19,-3.69 A 33.24,33.24 0 0 1 99.5,138 l -3,7.92 z"
         class="cls-1" />
      <path
         style="fill:#393939"
         inkscape:connector-curvature="0"
         id="path4561"
         transform="translate(-0.21)"
         d="m 135.25,149.88 a 6.27,6.27 0 0 1 -2.45,5.26 10.61,10.61 0 0 1 -6.64,1.89 16.64,16.64 0 0 1 -7,-1.17 V 153 a 18.33,18.33 0 0 0 3.43,1 18,18 0 0 0 3.67,0.38 7.41,7.41 0 0 0 4.48,-1.13 3.7,3.7 0 0 0 1.5,-3.14 4,4 0 0 0 -0.53,-2.18 5,5 0 0 0 -1.78,-1.57 24.92,24.92 0 0 0 -3.8,-1.62 12.14,12.14 0 0 1 -5.1,-3 6.68,6.68 0 0 1 -1.53,-4.56 5.67,5.67 0 0 1 2.22,-4.7 9.23,9.23 0 0 1 5.87,-1.75 17.31,17.31 0 0 1 7,1.4 l -0.93,2.59 a 15.84,15.84 0 0 0 -6.15,-1.33 6,6 0 0 0 -3.69,1 3.34,3.34 0 0 0 -1.33,2.81 4.31,4.31 0 0 0 0.49,2.18 4.6,4.6 0 0 0 1.65,1.56 20.48,20.48 0 0 0 3.56,1.57 14.08,14.08 0 0 1 5.53,3.08 6.05,6.05 0 0 1 1.53,4.29 z"
         class="cls-1" />
      <path
         style="fill:#393939"
         inkscape:connector-curvature="0"
         id="path4563"
         transform="translate(-0.21)"
         d="m 160.27,149.88 a 6.27,6.27 0 0 1 -2.45,5.26 10.61,10.61 0 0 1 -6.64,1.89 16.64,16.64 0 0 1 -7,-1.17 V 153 a 18.33,18.33 0 0 0 3.43,1 18,18 0 0 0 3.67,0.38 7.41,7.41 0 0 0 4.48,-1.13 3.7,3.7 0 0 0 1.5,-3.14 4,4 0 0 0 -0.53,-2.18 5,5 0 0 0 -1.78,-1.57 24.92,24.92 0 0 0 -3.8,-1.62 12.14,12.14 0 0 1 -5.1,-3 6.68,6.68 0 0 1 -1.53,-4.56 5.67,5.67 0 0 1 2.22,-4.7 9.23,9.23 0 0 1 5.87,-1.75 17.31,17.31 0 0 1 7,1.4 l -0.93,2.59 a 15.84,15.84 0 0 0 -6.15,-1.33 6,6 0 0 0 -3.69,1 3.34,3.34 0 0 0 -1.33,2.81 4.31,4.31 0 0 0 0.49,2.18 4.6,4.6 0 0 0 1.65,1.56 20.48,20.48 0 0 0 3.56,1.57 14.08,14.08 0 0 1 5.53,3.08 6.05,6.05 0 0 1 1.53,4.29 z"
         class="cls-1" />
      <path
         style="fill:#393939"
         inkscape:connector-curvature="0"
         id="path4565"
         transform="translate(-0.21)"
         d="m 185.11,156.68 h -14.24 v -25.56 h 14.25 v 2.64 H 173.84 V 142 h 10.59 v 2.62 H 173.84 V 154 h 11.28 z"
         class="cls-1" />
      <path
         style="fill:#393939"
         inkscape:connector-curvature="0"
         id="path4567"
         transform="translate(-0.21)"
         d="M 207.46,156.68 198.79,134 h -0.14 q 0.24,2.69 0.25,6.4 v 16.26 h -2.74 v -25.54 h 4.48 l 8.09,21.08 h 0.14 L 217,131.12 h 4.44 v 25.56 h -3 v -16.47 q 0,-2.83 0.25,-6.15 h -0.14 l -8.74,22.62 z"
         class="cls-1" />
      <path
         style="fill:#393939"
         inkscape:connector-curvature="0"
         id="path4569"
         transform="translate(-0.21)"
         d="m 233.84,131.12 h 7.22 q 5.09,0 7.36,1.52 a 5.37,5.37 0 0 1 2.27,4.81 5.55,5.55 0 0 1 -1.27,3.75 6.1,6.1 0 0 1 -3.7,1.91 v 0.17 q 5.82,1 5.82,6.12 a 6.57,6.57 0 0 1 -2.32,5.35 9.86,9.86 0 0 1 -6.48,1.92 h -8.92 z m 3,10.94 h 4.89 a 8,8 0 0 0 4.53,-1 3.81,3.81 0 0 0 1.38,-3.33 3.37,3.37 0 0 0 -1.54,-3.1 9.61,9.61 0 0 0 -4.9,-1 h -4.37 z m 0,2.52 v 9.56 h 5.33 a 7.59,7.59 0 0 0 4.66,-1.2 4.42,4.42 0 0 0 1.56,-3.75 4,4 0 0 0 -1.6,-3.5 8.55,8.55 0 0 0 -4.87,-1.12 z"
         class="cls-1" />
      <path
         style="fill:#393939"
         inkscape:connector-curvature="0"
         id="path4571"
         transform="translate(-0.21)"
         d="m 262.41,156.68 v -25.56 h 3 V 154 h 11.28 v 2.69 z"
         class="cls-1" />
      <path
         style="fill:#393939"
         inkscape:connector-curvature="0"
         id="path4573"
         transform="translate(-0.21)"
         d="m 292.86,143.9 6.82,-12.78 h 3.22 l -8.53,15.64 v 9.91 h -3 v -9.77 l -8.51,-15.79 h 3.25 z"
         class="cls-1" />
    </g>
    <g
       id="icon"
       style="display:inline;opacity:1">
      <path
         style="display:inline;fill:#a2dc55;fill-opacity:1"
         inkscape:connector-curvature="0"
         id="path4577"
         transform="translate(-0.21)"
         d="m 163.76,0 c 0,0.19 0,0.38 0,0.58 a 12.34,12.34 0 0 1 -24.68,0 c 0,-0.2 0,-0.39 0,-0.58 H 97.64 V 107.62 H 205.26 V 0 Z M 149,96.1 143.76,70.17 h -0.09 L 138,96.1 h -7.22 L 122.6,58 h 7.13 l 4.88,25.93 h 0.09 L 140.58,58 h 6.67 l 5.28,26.25 h 0.09 L 158.19,58 h 7 l -9.09,38.1 z m 39.26,0 -2.43,-8.48 H 173 l -1.87,8.48 H 164 L 173.22,58 h 11.25 l 11.21,38.1 z"
         class="cls-2" />
      <polygon
         style="display:inline;fill:#a2dc55;fill-opacity:1"
         id="polygon4579"
         points="174.19,81.37 183.87,81.37 180.3,67.39 177.3,67.39 "
         class="cls-2" />
    </g>
  </g>
</svg>
